<svg width="60" height="60" viewBox="0 0 60 60" fill="none" xmlns="http://www.w3.org/2000/svg">
<path d="M50 10H10C7.2425 10 5 12.2425 5 15V45C5 47.7575 7.2425 50 10 50H50C52.7575 50 55 47.7575 55 45V15C55 12.2425 52.7575 10 50 10ZM10 45V15H50L50.0025 45H10Z" fill="white"/>
<path d="M16.25 27.5H23.75C24.0815 27.5 24.3995 27.3683 24.6339 27.1339C24.8683 26.8995 25 26.5815 25 26.25V21.25C25 20.9185 24.8683 20.6005 24.6339 20.3661C24.3995 20.1317 24.0815 20 23.75 20H16.25C15.9185 20 15.6005 20.1317 15.3661 20.3661C15.1317 20.6005 15 20.9185 15 21.25V26.25C15 26.5815 15.1317 26.8995 15.3661 27.1339C15.6005 27.3683 15.9185 27.5 16.25 27.5ZM15 35H30V40.0025H15V35ZM32.5 35H45V40.0025H32.5V35Z" fill="white"/>
</svg>
