<svg width="51" height="40" viewBox="0 0 51 40" fill="none" xmlns="http://www.w3.org/2000/svg">
<path d="M32.725 0C32.2194 0.91613 31.7689 1.86225 31.3758 2.83323C27.5136 2.2152 23.5793 2.2152 19.717 2.83323C19.324 1.86225 18.8734 0.91613 18.3679 0C14.7297 0.628979 11.1929 1.75541 7.85458 3.34836C1.88502 12.0651 -0.822228 22.6477 0.217805 33.2003C4.10807 36.1593 8.47432 38.4162 13.1239 39.8712C14.1827 38.4562 15.1276 36.9575 15.9495 35.3896C14.4326 34.8236 12.9745 34.1076 11.5966 33.2518C11.9745 32.9973 12.332 32.7131 12.6657 32.4018C16.6839 34.3601 21.0865 35.3771 25.5464 35.3771C30.0064 35.3771 34.409 34.3601 38.4271 32.4018C38.7835 32.7109 39.1399 32.9942 39.4963 33.2518C38.1108 34.1008 36.6542 34.8248 35.1433 35.4153C35.9312 37.0188 36.8508 38.5524 37.8925 40C42.5364 38.55 46.8951 36.2926 50.7732 33.329C51.8382 22.7745 49.1288 12.1833 43.1365 3.47714C39.8357 1.85122 36.3338 0.681701 32.725 0ZM17.0951 27.1732C15.8212 27.0807 14.6323 26.4924 13.778 25.5319C12.9236 24.5714 12.4702 23.3134 12.513 22.0219C12.4638 20.7287 12.9149 19.4671 13.7706 18.5051C14.6262 17.5432 15.8189 16.9568 17.0951 16.8706C18.3713 16.9568 19.5639 17.5432 20.4196 18.5051C21.2752 19.4671 21.7264 20.7287 21.6771 22.0219C21.7264 23.3151 21.2752 24.5767 20.4196 25.5387C19.5639 26.5006 18.3713 27.087 17.0951 27.1732ZM33.9978 27.1732C32.7239 27.0807 31.535 26.4924 30.6807 25.5319C29.8263 24.5714 29.3729 23.3134 29.4157 22.0219C29.3665 20.7287 29.8176 19.4671 30.6733 18.5051C31.5289 17.5432 32.7216 16.9568 33.9978 16.8706C35.2764 16.9504 36.4729 17.5348 37.3298 18.4983C38.1868 19.4617 38.6357 20.727 38.5798 22.0219C38.6357 23.3168 38.1868 24.5821 37.3298 25.5455C36.4729 26.5089 35.2764 27.0934 33.9978 27.1732Z" fill="white"/>
</svg>
