<svg width="160" height="36" viewBox="0 0 160 36" fill="none" xmlns="http://www.w3.org/2000/svg">
<g clip-path="url(#clip0_1924:6877)">
<path d="M21.8104 25.7979H12.0278V35.1445H21.8104V25.7979Z" fill="#91D1DD"/>
<path d="M30.4334 12.8984H12.0278V22.2099H30.4334H33.8017V12.8984H30.4334Z" fill="#00B3C8"/>
<path d="M42.2867 0H12.0278V9.34666H42.2867V0Z" fill="#009BB5"/>
<path d="M9.78258 12.8984H0V22.2451H9.78258V12.8984Z" fill="#C71437"/>
<path d="M60.8768 12.6973V17.3838H70.7698V22.0703H60.8768V29.4034H54.5269V8.01074H72.095V12.6709H60.8768V12.6973Z" fill="white"/>
<path d="M81.2514 12.8028H74.377V8.01074H94.439V12.8028H87.6014V29.3858H81.2514V12.8028Z" fill="white"/>
<path d="M111.234 29.3859L106.605 22.7825L102.05 29.4122H94.8257L102.961 18.5884L95.1754 8.03712H102.298L106.789 14.2008L111.17 8.00195H118.008L110.222 18.3246L118.532 29.3771H111.234V29.3859Z" fill="white"/>
<path d="M125.72 8.07129V20.9175C125.72 23.142 126.207 24.8478 127.257 25.9909C128.361 27.1955 130.045 27.811 132.383 27.811C134.711 27.811 136.404 27.1955 137.509 25.9909C138.521 24.8478 139.045 23.1508 139.045 20.9175V8.07129H140.914V20.9175C140.914 23.6432 140.205 25.7271 138.861 27.1603C137.416 28.6551 135.272 29.42 132.383 29.42C129.502 29.42 127.349 28.6551 125.941 27.1955C124.533 25.7271 123.852 23.6432 123.852 20.9175V8.07129H125.72Z" fill="#00B3C8"/>
<path d="M157.028 9.32882C158.473 10.4455 159.301 12.0809 159.485 14.2527H157.617C157.369 12.6085 156.724 11.3775 155.684 10.5246C154.645 9.67174 153.172 9.26727 151.267 9.26727C149.491 9.26727 148.111 9.55743 147.089 10.1465C145.92 10.7884 145.368 11.7908 145.368 13.1097C145.368 14.2791 146.04 15.1936 147.42 15.897C148.065 16.1871 149.473 16.662 151.626 17.2423C154.414 18.0072 156.292 18.6491 157.277 19.2382C159.089 20.267 160.01 21.7266 160.01 23.6346C160.01 25.4195 159.209 26.8615 157.645 27.9166C156.145 28.9102 154.148 29.4114 151.663 29.4114C149.15 29.4114 147.153 28.8575 145.709 27.7672C144.052 26.5098 143.132 24.6018 142.948 22.0783H144.788C145 24.039 145.709 25.5074 146.933 26.4746C148.037 27.3275 149.601 27.7672 151.626 27.7672C153.559 27.7672 155.123 27.3891 156.319 26.6857C157.488 25.9559 158.096 24.9535 158.096 23.7225C158.096 22.2893 157.332 21.1726 155.859 20.3813C155.123 19.968 153.531 19.4141 151.037 18.7722C148.433 18.0688 146.739 17.5148 146.003 17.1016C144.319 16.1959 143.491 14.877 143.491 13.1712C143.491 11.3511 144.255 9.97948 145.856 9.00349C147.264 8.09784 149.104 7.6582 151.322 7.6582C153.715 7.6582 155.611 8.22094 157.028 9.32882Z" fill="#00B3C8"/>
</g>
<defs>
<clipPath id="clip0_1924:6877">
<rect width="160" height="35.1445" fill="white"/>
</clipPath>
</defs>
</svg>
