<svg width="54" height="54" viewBox="0 0 54 54" fill="none" xmlns="http://www.w3.org/2000/svg">
<path fill-rule="evenodd" clip-rule="evenodd" d="M15.8686 0.162C18.7478 0.0294545 19.6658 0 27 0C34.3342 0 35.2522 0.0319091 38.1289 0.162C41.0056 0.292091 42.9693 0.751091 44.6875 1.41627C46.4866 2.09618 48.1189 3.159 49.4689 4.53355C50.8435 5.88109 51.9038 7.51091 52.5813 9.31255C53.2489 11.0307 53.7055 12.9944 53.838 15.8662C53.9705 18.7503 54 19.6683 54 27C54 34.3342 53.9681 35.2522 53.838 38.1314C53.7079 41.0032 53.2489 42.9668 52.5813 44.685C51.9038 46.4869 50.8417 48.1194 49.4689 49.4689C48.1189 50.8435 46.4866 51.9038 44.6875 52.5813C42.9693 53.2489 41.0056 53.7055 38.1338 53.838C35.2522 53.9705 34.3342 54 27 54C19.6658 54 18.7478 53.9681 15.8686 53.838C12.9968 53.7079 11.0332 53.2489 9.315 52.5813C7.51317 51.9037 5.88065 50.8416 4.53109 49.4689C3.15748 48.1206 2.0945 46.4888 1.41627 44.6875C0.751091 42.9693 0.294545 41.0056 0.162 38.1338C0.0294545 35.2497 0 34.3317 0 27C0 19.6658 0.0319091 18.7478 0.162 15.8711C0.292091 12.9944 0.751091 11.0307 1.41627 9.31255C2.0955 7.51111 3.15929 5.87941 4.53355 4.53109C5.88119 3.15778 7.51207 2.09482 9.31255 1.41627C11.0307 0.751091 12.9944 0.294545 15.8662 0.162H15.8686ZM37.9105 5.022C35.0632 4.89191 34.209 4.86491 27 4.86491C19.791 4.86491 18.9368 4.89191 16.0895 5.022C13.4558 5.14227 12.0273 5.58164 11.0749 5.95227C9.81573 6.44318 8.91491 7.02491 7.96991 7.96991C7.07411 8.8414 6.38472 9.90233 5.95227 11.0749C5.58164 12.0273 5.14227 13.4558 5.022 16.0895C4.89191 18.9368 4.86491 19.791 4.86491 27C4.86491 34.209 4.89191 35.0632 5.022 37.9105C5.14227 40.5442 5.58164 41.9727 5.95227 42.9251C6.38427 44.0959 7.074 45.1587 7.96991 46.0301C8.84127 46.926 9.90409 47.6157 11.0749 48.0477C12.0273 48.4184 13.4558 48.8577 16.0895 48.978C18.9368 49.1081 19.7885 49.1351 27 49.1351C34.2115 49.1351 35.0632 49.1081 37.9105 48.978C40.5442 48.8577 41.9727 48.4184 42.9251 48.0477C44.1843 47.5568 45.0851 46.9751 46.0301 46.0301C46.926 45.1587 47.6157 44.0959 48.0477 42.9251C48.4184 41.9727 48.8577 40.5442 48.978 37.9105C49.1081 35.0632 49.1351 34.209 49.1351 27C49.1351 19.791 49.1081 18.9368 48.978 16.0895C48.8577 13.4558 48.4184 12.0273 48.0477 11.0749C47.5568 9.81573 46.9751 8.91491 46.0301 7.96991C45.1585 7.07418 44.0976 6.38479 42.9251 5.95227C41.9727 5.58164 40.5442 5.14227 37.9105 5.022V5.022ZM23.5514 35.3234C25.4773 36.1251 27.6219 36.2333 29.6188 35.6295C31.6157 35.0257 33.3411 33.7473 34.5001 32.0128C35.6592 30.2782 36.1801 28.195 35.9739 26.1191C35.7677 24.0431 34.8472 22.1031 33.3695 20.6305C32.4276 19.6891 31.2886 18.9683 30.0346 18.5199C28.7807 18.0715 27.4429 17.9068 26.1176 18.0375C24.7923 18.1682 23.5125 18.5912 22.3702 19.2759C21.228 19.9606 20.2518 20.89 19.5119 21.9973C18.772 23.1045 18.2868 24.3621 18.0913 25.6794C17.8957 26.9966 17.9946 28.3409 18.381 29.6154C18.7673 30.8898 19.4314 32.0628 20.3254 33.0498C21.2194 34.0368 22.3212 34.8133 23.5514 35.3234ZM17.1867 17.1867C18.4754 15.898 20.0053 14.8758 21.6891 14.1783C23.3729 13.4809 25.1775 13.1219 27 13.1219C28.8225 13.1219 30.6271 13.4809 32.3109 14.1783C33.9947 14.8758 35.5246 15.898 36.8133 17.1867C38.102 18.4754 39.1242 20.0053 39.8217 21.6891C40.5191 23.3729 40.8781 25.1775 40.8781 27C40.8781 28.8225 40.5191 30.6271 39.8217 32.3109C39.1242 33.9947 38.102 35.5246 36.8133 36.8133C34.2106 39.4159 30.6807 40.8781 27 40.8781C23.3193 40.8781 19.7894 39.4159 17.1867 36.8133C14.5841 34.2106 13.1219 30.6807 13.1219 27C13.1219 23.3193 14.5841 19.7894 17.1867 17.1867V17.1867ZM43.956 15.1887C44.2754 14.8875 44.531 14.5252 44.7078 14.1234C44.8847 13.7216 44.9791 13.2883 44.9855 12.8494C44.9919 12.4104 44.9101 11.9746 44.7451 11.5678C44.5801 11.161 44.3351 10.7914 44.0246 10.481C43.7142 10.1706 43.3446 9.92559 42.9378 9.76054C42.531 9.5955 42.0952 9.51376 41.6563 9.52016C41.2173 9.52656 40.7841 9.62097 40.3822 9.7978C39.9804 9.97463 39.6182 10.2303 39.3169 10.5496C38.731 11.1707 38.4103 11.9957 38.4227 12.8494C38.4352 13.7031 38.7798 14.5183 39.3836 15.1221C39.9873 15.7258 40.8025 16.0705 41.6563 16.0829C42.51 16.0954 43.3349 15.7746 43.956 15.1887V15.1887Z" fill="white"/>
</svg>
