<svg width="158" height="158" viewBox="0 0 158 158" fill="none" xmlns="http://www.w3.org/2000/svg">
<path d="M155.5 79C155.5 121.25 121.25 155.5 79 155.5C36.7502 155.5 2.5 121.25 2.5 79C2.5 36.7502 36.7502 2.5 79 2.5C121.25 2.5 155.5 36.7502 155.5 79Z" fill="#1F1F1F" stroke="#35AED7" stroke-width="5"/>
<path d="M74.5997 52.6002C71.2425 52.6002 68.1097 53.5374 65.4389 55.1698C65.1628 53.6932 64.6596 52.2683 63.9473 50.9458C67.297 49.092 71.0724 48.1445 74.9005 48.1969C78.7285 48.2492 82.4767 49.2996 85.7744 51.2442C89.0722 53.1888 91.8054 55.9604 93.7039 59.2849C95.6025 62.6094 96.6006 66.3717 96.5997 70.2002H107.604C109.354 70.2013 111.031 70.8972 112.268 72.1348C113.505 73.3724 114.2 75.0505 114.2 76.8002V103.2C114.2 104.951 113.504 106.629 112.267 107.867C111.029 109.105 109.35 109.8 107.6 109.8H81.1997C79.4492 109.8 77.7705 109.105 76.5328 107.867C75.295 106.629 74.5997 104.951 74.5997 103.2V92.2002C71.539 92.204 68.5113 91.567 65.7117 90.3302C65.7689 88.8342 65.7997 87.2634 65.7997 85.6002V85.4462C68.3869 86.9422 71.3921 87.8002 74.5997 87.8002V76.8002C74.5997 75.0497 75.295 73.371 76.5328 72.1333C77.7705 70.8955 79.4492 70.2002 81.1997 70.2002H92.1997C92.1997 65.5324 90.3454 61.0557 87.0447 57.7551C83.7441 54.4544 79.2675 52.6002 74.5997 52.6002ZM96.1597 74.6002C95.2942 78.8267 93.2066 82.7059 90.156 85.7565C87.1054 88.8071 83.2262 90.8947 78.9997 91.7602V103.2C78.9997 103.784 79.2314 104.343 79.644 104.756C80.0566 105.168 80.6162 105.4 81.1997 105.4H107.6C108.183 105.4 108.743 105.168 109.155 104.756C109.568 104.343 109.8 103.784 109.8 103.2V76.8002C109.8 76.2167 109.568 75.6571 109.155 75.2445C108.743 74.8319 108.183 74.6002 107.6 74.6002H96.1597ZM91.6453 74.6002H81.1997C80.6162 74.6002 80.0566 74.8319 79.644 75.2445C79.2314 75.6571 78.9997 76.2167 78.9997 76.8002V87.2458C82.0436 86.4571 84.8213 84.8688 87.0448 82.6453C89.2683 80.4218 90.8566 77.6441 91.6453 74.6002Z" fill="white"/>
<path d="M55.1518 44.3501C55.5178 44.669 55.768 45.1 55.8635 45.5759C55.959 46.0518 55.8944 46.5459 55.6798 46.9813C55.6426 47.11 55.6233 47.2433 55.6226 47.3773C55.6226 47.6545 55.693 48.1825 56.3574 48.8425C56.6786 49.1637 56.925 49.3925 57.1934 49.6433C57.4134 49.8457 57.6466 50.0569 57.9414 50.3473C58.5134 50.8929 59.1162 51.5353 59.6574 52.3405C60.7794 54.0257 61.3998 56.1333 61.3998 59.2001C61.3998 62.9533 60.0094 66.1521 57.8402 68.1145L58.1218 68.4401C59.3538 69.9537 60.071 71.9161 60.5198 73.8521C61.3998 77.6801 61.3998 82.2825 61.3998 85.4901V85.6001C61.3998 97.8629 59.7322 104.819 57.8974 108.797C56.9734 110.799 55.9922 112.075 55.143 112.876C54.7978 113.207 54.4171 113.499 54.0078 113.747C53.8204 113.86 53.6248 113.958 53.4226 114.042C53.4226 114.042 52.9254 114.2 52.5998 114.2C52.2742 114.2 51.777 114.042 51.777 114.042C51.5726 113.963 51.3766 113.864 51.1918 113.747C50.7826 113.499 50.4019 113.207 50.0566 112.876C49.2074 112.071 48.2262 110.799 47.3022 108.797C45.4674 104.819 43.7998 97.8629 43.7998 85.6001V85.4901C43.7998 82.2781 43.7998 77.6801 44.6798 73.8521C45.1286 71.9161 45.8458 69.9537 47.0778 68.4401C47.1658 68.3301 47.2626 68.2201 47.3594 68.1145C45.1902 66.1521 43.7998 62.9533 43.7998 59.2001C43.7998 57.7657 44.1826 56.0541 44.7106 54.4745C45.2386 52.8905 45.9778 51.2537 46.8314 49.9337C47.8478 48.2177 49.2778 46.7789 50.3866 45.8109C50.9945 45.2763 51.6289 44.7726 52.2874 44.3017L52.4194 44.2137L52.459 44.1829L52.4722 44.1741L52.481 44.1697C52.8845 43.9008 53.3655 43.7727 53.8493 43.8053C54.333 43.8379 54.7925 44.0294 55.1562 44.3501H55.1518ZM52.613 65.8001C54.2982 65.7957 56.9998 63.9081 56.9998 59.2001C56.9998 56.7669 56.5202 55.5745 55.9922 54.7825C55.6712 54.3199 55.3009 53.8936 54.8878 53.5109L54.3422 53.0005C53.9858 52.6661 53.5678 52.2789 53.2422 51.9577C52.761 51.4815 52.3479 50.941 52.0146 50.3517C51.4545 50.9406 50.9616 51.5899 50.545 52.2877C49.929 53.2337 49.3306 54.5317 48.8862 55.8693C48.4286 57.2333 48.1998 58.4389 48.1998 59.2001C48.1998 63.9169 50.9058 65.8001 52.5998 65.8001H52.6086H52.613ZM50.4878 71.2209C49.8674 71.9821 49.3438 73.1965 48.9698 74.8421C48.2086 78.1333 48.1998 82.2693 48.1998 85.6001C48.1998 97.5373 49.8322 103.781 51.2974 106.953C51.7814 107.996 52.2346 108.691 52.5998 109.153C52.965 108.691 53.4226 107.996 53.9022 106.953C55.3674 103.781 56.9998 97.5373 56.9998 85.6001C56.9998 82.2693 56.991 78.1333 56.2298 74.8421C55.8514 73.1965 55.3322 71.9821 54.7118 71.2209C54.4691 70.8921 54.15 70.6273 53.782 70.4494C53.414 70.2716 53.0083 70.186 52.5998 70.2001H52.591C52.184 70.1871 51.7798 70.2732 51.4134 70.451C51.0471 70.6288 50.7294 70.893 50.4878 71.2209Z" fill="white"/>
</svg>
