<svg width="158" height="158" viewBox="0 0 158 158" fill="none" xmlns="http://www.w3.org/2000/svg">
<path d="M155.5 79C155.5 121.25 121.25 155.5 79 155.5C36.7502 155.5 2.5 121.25 2.5 79C2.5 36.7502 36.7502 2.5 79 2.5C121.25 2.5 155.5 36.7502 155.5 79Z" fill="#1F1F1F" stroke="#35AED7" stroke-width="5"/>
<path fill-rule="evenodd" clip-rule="evenodd" d="M81.8467 42.0799C80.9821 41.5807 80.0013 41.3179 79.0029 41.3179C78.0046 41.3179 77.0238 41.5807 76.1592 42.0799L49.3467 57.5564C48.4823 58.0554 47.7645 58.7731 47.2654 59.6374C46.7662 60.5016 46.5032 61.482 46.5029 62.4801V93.4364C46.5029 95.4676 47.5884 97.3461 49.3467 98.3601L76.1592 113.84C77.0238 114.339 78.0046 114.602 79.0029 114.602C80.0013 114.602 80.9821 114.339 81.8467 113.84L108.659 98.3634C109.524 97.864 110.242 97.1458 110.741 96.2809C111.241 95.416 111.503 94.435 111.503 93.4364V62.4801C111.503 61.482 111.24 60.5016 110.741 59.6374C110.241 58.7731 109.524 58.0554 108.659 57.5564L81.8467 42.0766V42.0799ZM78.5967 46.2984C78.7202 46.227 78.8603 46.1895 79.0029 46.1895C79.1456 46.1895 79.2857 46.227 79.4092 46.2984L104.19 60.6049L79.0029 75.1454L53.8154 60.6049L78.5967 46.2984ZM51.3779 64.8299V93.4396C51.3779 93.7321 51.5339 93.9986 51.7842 94.1416L76.5654 108.448V79.3704L51.3779 64.8299ZM81.4404 108.448L106.222 94.1416C106.345 94.0704 106.447 93.9681 106.519 93.8449C106.59 93.7217 106.628 93.5819 106.628 93.4396V64.8266L81.4404 79.3671V108.445V108.448Z" fill="white"/>
</svg>
