<svg width="23" height="18" viewBox="0 0 23 18" fill="none" xmlns="http://www.w3.org/2000/svg">
<path d="M14.7583 0C14.5303 0.412258 14.3271 0.838014 14.1499 1.27495C12.4081 0.996839 10.6338 0.996839 8.89199 1.27495C8.71473 0.838014 8.51154 0.412258 8.28355 0C6.6428 0.28304 5.04777 0.789934 3.54226 1.50676C0.850105 5.42931 -0.370809 10.1914 0.0982257 14.9401C1.85266 16.2717 3.82175 17.2873 5.91864 17.942C6.39612 17.3053 6.82224 16.6309 7.19293 15.9253C6.5088 15.6706 5.85125 15.3484 5.22984 14.9633C5.40027 14.8488 5.56149 14.7209 5.712 14.5808C7.52409 15.4621 9.50958 15.9197 11.5209 15.9197C13.5323 15.9197 15.5178 15.4621 17.3299 14.5808C17.4906 14.7199 17.6513 14.8474 17.812 14.9633C17.1872 15.3454 16.5303 15.6712 15.8489 15.9369C16.2043 16.6584 16.619 17.3486 17.0888 18C19.1831 17.3475 21.1487 16.3317 22.8977 14.9981C23.378 10.2485 22.1561 5.4825 19.4537 1.56471C17.9651 0.83305 16.3858 0.306765 14.7583 0ZM7.70954 12.2279C7.13506 12.1863 6.59889 11.9216 6.21359 11.4894C5.82829 11.0571 5.62383 10.491 5.64312 9.90985C5.62092 9.32791 5.82437 8.76017 6.21025 8.3273C6.59613 7.89443 7.134 7.63055 7.70954 7.59176C8.28508 7.63055 8.82295 7.89443 9.20883 8.3273C9.5947 8.76017 9.79816 9.32791 9.77596 9.90985C9.79816 10.4918 9.5947 11.0595 9.20883 11.4924C8.82295 11.9253 8.28508 12.1892 7.70954 12.2279ZM15.3323 12.2279C14.7578 12.1863 14.2217 11.9216 13.8364 11.4894C13.4511 11.0571 13.2466 10.491 13.2659 9.90985C13.2437 9.32791 13.4472 8.76017 13.833 8.3273C14.2189 7.89443 14.7568 7.63055 15.3323 7.59176C15.9089 7.62766 16.4486 7.89068 16.835 8.32421C17.2215 8.75775 17.4239 9.32714 17.3988 9.90985C17.4239 10.4926 17.2215 11.062 16.835 11.4955C16.4486 11.929 15.9089 12.192 15.3323 12.2279Z" fill="white"/>
</svg>
