<svg width="54" height="44" viewBox="0 0 54 44" fill="none" xmlns="http://www.w3.org/2000/svg">
<path d="M54.0001 5.70598C52.0402 6.57442 49.9348 7.16121 47.7215 7.42643C50.0052 6.05991 51.7138 3.90918 52.5284 1.37553C50.3828 2.64999 48.0345 3.54708 45.5856 4.02779C43.9388 2.26947 41.7576 1.10402 39.3805 0.712399C37.0035 0.320775 34.5637 0.72488 32.4399 1.86197C30.316 2.99907 28.627 4.80554 27.6351 7.00091C26.6431 9.19628 26.4037 11.6577 26.954 14.0031C22.6064 13.7848 18.3533 12.6548 14.4706 10.6864C10.588 8.71797 7.16264 5.95516 4.41687 2.57726C3.47802 4.19678 2.93818 6.07449 2.93818 8.07424C2.93713 9.87448 3.38045 11.6471 4.22882 13.235C5.07718 14.8228 6.30435 16.1766 7.80144 17.1764C6.06521 17.1212 4.36728 16.652 2.84899 15.808V15.9489C2.84881 18.4738 3.7222 20.921 5.32095 22.8753C6.9197 24.8295 9.14534 26.1705 11.6202 26.6706C10.0096 27.1065 8.32095 27.1707 6.68186 26.8583C7.38012 29.0309 8.74028 30.9307 10.5719 32.2918C12.4036 33.6529 14.615 34.4071 16.8966 34.449C13.0234 37.4895 8.24009 39.1388 3.31607 39.1315C2.44383 39.1317 1.57233 39.0808 0.706055 38.9789C5.70422 42.1926 11.5224 43.8981 17.4646 43.8915C37.5795 43.8915 48.5758 27.2315 48.5758 12.7826C48.5758 12.3132 48.5641 11.839 48.543 11.3696C50.6819 9.8228 52.5282 7.90735 53.9954 5.71303L54.0001 5.70598V5.70598Z" fill="white"/>
</svg>
