<svg width="23" height="19" viewBox="0 0 23 19" fill="none" xmlns="http://www.w3.org/2000/svg">
<path d="M22.706 2.18952C21.871 2.55952 20.974 2.80952 20.031 2.92252C21.004 2.34031 21.7319 1.42398 22.079 0.344518C21.1648 0.887508 20.1643 1.26971 19.121 1.47452C18.4194 0.725384 17.4901 0.228845 16.4773 0.0619924C15.4646 -0.10486 14.4251 0.0673099 13.5202 0.551771C12.6154 1.03623 11.8958 1.80588 11.4732 2.74122C11.0505 3.67656 10.9485 4.72527 11.183 5.72452C9.33069 5.63151 7.51863 5.15007 5.86442 4.31142C4.21022 3.47278 2.75084 2.29568 1.581 0.856519C1.181 1.54652 0.951 2.34652 0.951 3.19852C0.950554 3.96551 1.13943 4.72076 1.50088 5.39725C1.86232 6.07374 2.38516 6.65056 3.023 7.07652C2.28328 7.05298 1.55987 6.8531 0.913 6.49352V6.55352C0.912925 7.62926 1.28503 8.6719 1.96618 9.50451C2.64733 10.3371 3.59557 10.9084 4.65 11.1215C3.96378 11.3072 3.24434 11.3346 2.546 11.2015C2.8435 12.1271 3.423 12.9365 4.20337 13.5164C4.98374 14.0963 5.92592 14.4177 6.898 14.4355C5.24783 15.7309 3.20989 16.4336 1.112 16.4305C0.740381 16.4306 0.369076 16.4089 0 16.3655C2.12948 17.7347 4.60834 18.4613 7.14 18.4585C15.71 18.4585 20.395 11.3605 20.395 5.20452C20.395 5.00452 20.39 4.80252 20.381 4.60252C21.2923 3.94349 22.0789 3.12741 22.704 2.19252L22.706 2.18952Z" fill="#35AED7"/>
</svg>
