<?xml version="1.0" ?><svg style="enable-background:new 0 0 48 48;" version="1.1" viewBox="0 0 48 48" xml:space="preserve" xmlns="http://www.w3.org/2000/svg" xmlns:xlink="http://www.w3.org/1999/xlink"><g id="Icons"><g><g><path d="M38.62744,34.90911H9.37245c-1.21976,0-2.20851-0.98886-2.20851-2.20851v-17.4011     c0-1.21976,0.98875-2.20862,2.20862-2.20862h29.25477c1.21987,0,2.20873,0.98886,2.20873,2.20873v17.40088     C40.83606,33.92026,39.8472,34.90911,38.62744,34.90911z" style="fill:#F9F9F9;"/><rect height="3.43589" style="fill:#383838;" width="33.67212" x="7.16394" y="18.76018"/><path d="     M38.62744,34.90911H9.37245c-1.21976,0-2.20851-0.98886-2.20851-2.20851v-17.4011c0-1.21976,0.98875-2.20862,2.20862-2.20862     h29.25477c1.21987,0,2.20873,0.98886,2.20873,2.20873v17.40088C40.83606,33.92026,39.8472,34.90911,38.62744,34.90911z" style="fill:none;stroke:#303030;stroke-width:0.8;stroke-linecap:round;stroke-linejoin:round;stroke-miterlimit:10;"/><line style="fill:none;stroke:#303030;stroke-width:0.8;stroke-linecap:round;stroke-linejoin:round;stroke-miterlimit:10;" x1="7.16394" x2="40.60214" y1="18.76018" y2="18.76018"/><line style="fill:none;stroke:#303030;stroke-width:0.8;stroke-linecap:round;stroke-linejoin:round;stroke-miterlimit:10;" x1="40.59009" x2="7.34546" y1="22.19606" y2="22.19606"/><line style="fill:none;stroke:#303030;stroke-width:0.8;stroke-linecap:round;stroke-linejoin:round;stroke-miterlimit:10;" x1="10.25618" x2="18.5883" y1="30.87183" y2="30.87183"/><line style="fill:none;stroke:#303030;stroke-width:0.8;stroke-linecap:round;stroke-linejoin:round;stroke-miterlimit:10;" x1="10.25618" x2="13.83698" y1="28.18824" y2="28.18824"/></g><path d="M29.87145,30.77301c0.00381,0.02065,0.00891,0.04109,0.02566,0.06577    c0.28798-0.7274,0.57586-1.4548,0.8634-2.18101c0.29233,0,0.58162,0,0.87797,0c-0.01587,0.04012-0.02903,0.07545-0.0437,0.11034    c-0.42909,1.0243-0.85873,2.0487-1.28706,3.07354c-0.01641,0.03903-0.03588,0.05392-0.07969,0.0536    c-0.25939-0.00228-0.51889-0.00185-0.77828-0.00033c-0.03914,0.00043-0.05566-0.00935-0.0661-0.05001    c-0.21667-0.84351-0.43703-1.68614-0.65174-2.53009" style="fill:#0052CC;"/><path d="M28.73191,29.31483c-0.03859-0.15144-0.11458-0.25613-0.25906-0.32038    c-0.23797-0.10589-0.4853-0.17959-0.73795-0.23852c-0.01109-0.00272-0.02174-0.00696-0.03261-0.01054    c0-0.00772,0-0.01544,0-0.02316c0.00772-0.0636,0.04783-0.06947,0.10371-0.06914c0.44018,0.00239,0.88025,0.0013,1.32043,0.00141    c0.21852,0,0.36843,0.12176,0.4092,0.33658c0.11263,0.59379,0.22395,1.18791,0.33582,1.78192" style="fill:#FFC601;"/><path d="M34.64548,28.59548c0.09415,0.01554,0.18884,0.02761,0.28189,0.04762    c0.09164,0.01979,0.18188,0.04707,0.27243,0.07219c0.02185,0.00609,0.04262,0.01598,0.06827,0.02588    c-0.0486,0.22645-0.09653,0.45083-0.14459,0.67522c-0.11023-0.03479-0.21569-0.07425-0.32451-0.10078    c-0.19568-0.04751-0.39539-0.06795-0.5926-0.01489c-0.07121,0.01924-0.14296,0.05936-0.19873,0.10806    c-0.09447,0.08241-0.09458,0.20297-0.00337,0.28907c0.06207,0.0586,0.13513,0.10763,0.20884,0.15133    c0.14698,0.08686,0.30135,0.16144,0.44627,0.25135c0.19503,0.121,0.35723,0.27537,0.42224,0.50562    c0.09447,0.33429-0.0088,0.78002-0.38104,1.04876c-0.21428,0.15459-0.45671,0.23547-0.71468,0.26863    c-0.40593,0.05207-0.80426,0.01229-1.19226-0.12089c-0.02164-0.00739-0.0424-0.01707-0.06979-0.02826    c0.05011-0.23515,0.0998-0.46855,0.15078-0.70718c0.03283,0.01424,0.06099,0.02555,0.08838,0.03859    c0.24004,0.11382,0.49313,0.1684,0.75838,0.16525c0.12165-0.0013,0.24091-0.02011,0.35071-0.07817    c0.20057-0.106,0.2271-0.31157,0.05044-0.45138c-0.08654-0.0686-0.18579-0.12241-0.28418-0.17362    c-0.16383-0.08523-0.32592-0.17166-0.46834-0.29135c-0.40637-0.34147-0.3544-0.81861-0.13448-1.13964    c0.1809-0.26396,0.44692-0.40365,0.74936-0.48008c0.09632-0.02435,0.19645-0.03337,0.29461-0.0499    c0.01457-0.0025,0.0287-0.0075,0.04305-0.01141C34.43023,28.59548,34.53786,28.59548,34.64548,28.59548z" style="fill:#0052CC;"/><path d="M38.07659,31.89112c-0.26233,0-0.51378,0-0.77187,0    c-0.02446-0.11535-0.04979-0.23069-0.07327-0.34647c-0.02739-0.13589-0.02674-0.136-0.16753-0.136    c-0.29396,0-0.58792,0.00087-0.88199-0.00076c-0.04087-0.00022-0.06088,0.01152-0.07436,0.05142    c-0.04425,0.13078-0.09154,0.26048-0.14079,0.38952c-0.00695,0.01816-0.03152,0.04229-0.04816,0.04251    c-0.27842,0.00261-0.55683,0.00185-0.84144,0.00185c0.00718-0.02033,0.01174-0.03642,0.01826-0.05164    c0.40941-0.9782,0.81915-1.95641,1.229-2.93461c0.06947-0.16579,0.19797-0.25124,0.37637-0.25145    c0.23047-0.00033,0.46083-0.00011,0.69979-0.00011C37.62564,29.73262,37.85046,30.80856,38.07659,31.89112z M37.06468,30.74778    c-0.08447-0.40485-0.1672-0.80165-0.24993-1.19835c-0.00435-0.00054-0.00859-0.00109-0.01294-0.00163    c-0.14405,0.39778-0.28809,0.79546-0.43475,1.19998C36.60352,30.74778,36.82736,30.74778,37.06468,30.74778z" style="fill:#0052CC;"/><path d="M31.30918,31.89395c0.23221-1.08474,0.46257-2.1609,0.69294-3.23618c0.28015,0,0.55444,0,0.83568,0    c-0.02229,0.10686-0.04338,0.20982-0.06523,0.31255c-0.20286,0.94917-0.40659,1.89813-0.60727,2.84785    c-0.01294,0.06077-0.03457,0.07849-0.09665,0.0774c-0.22863-0.00424-0.45736-0.00163-0.68598-0.00163    C31.36158,31.89395,31.34082,31.89395,31.30918,31.89395z" style="fill:#0052CC;"/></g></g></svg>