<svg width="14" height="14" viewBox="0 0 14 14" fill="none" xmlns="http://www.w3.org/2000/svg">
<path d="M8.974 3.64H1.379C1.01383 3.64184 0.664147 3.78772 0.405932 4.04593C0.147717 4.30415 0.00183966 4.65383 1.12886e-10 5.019V12.614C-4.67266e-06 12.9804 0.145059 13.3319 0.403472 13.5916C0.661885 13.8513 1.01262 13.9981 1.379 14H8.974C9.15601 14 9.33624 13.9642 9.5044 13.8945C9.67256 13.8248 9.82535 13.7228 9.95405 13.5941C10.0828 13.4653 10.1848 13.3126 10.2545 13.1444C10.3242 12.9762 10.36 12.796 10.36 12.614V5.019C10.3581 4.65262 10.2113 4.30189 9.95158 4.04347C9.69186 3.78506 9.34038 3.64 8.974 3.64ZM8.68 12.32H1.68V5.32H8.68V12.32ZM7.28 0.84C7.28 0.617218 7.3685 0.403561 7.52603 0.24603C7.68356 0.0884998 7.89722 0 8.12 0H9.24C9.46278 0 9.67644 0.0884998 9.83397 0.24603C9.9915 0.403561 10.08 0.617218 10.08 0.84C10.08 1.06278 9.9915 1.27644 9.83397 1.43397C9.67644 1.5915 9.46278 1.68 9.24 1.68H8.12C7.89722 1.68 7.68356 1.5915 7.52603 1.43397C7.3685 1.27644 7.28 1.06278 7.28 0.84ZM14 1.4V1.96C14 2.18278 13.9115 2.39644 13.754 2.55397C13.5964 2.7115 13.3828 2.8 13.16 2.8C12.9372 2.8 12.7236 2.7115 12.566 2.55397C12.4085 2.39644 12.32 2.18278 12.32 1.96V1.68H12.04C11.8172 1.68 11.6036 1.5915 11.446 1.43397C11.2885 1.27644 11.2 1.06278 11.2 0.84C11.2 0.617218 11.2885 0.403561 11.446 0.24603C11.6036 0.0884998 11.8172 0 12.04 0H12.6C12.9707 0.00183991 13.3258 0.14993 13.5879 0.412083C13.8501 0.674237 13.9982 1.02926 14 1.4ZM14 4.76V5.88C14 6.10278 13.9115 6.31644 13.754 6.47397C13.5964 6.6315 13.3828 6.72 13.16 6.72C12.9372 6.72 12.7236 6.6315 12.566 6.47397C12.4085 6.31644 12.32 6.10278 12.32 5.88V4.76C12.32 4.53722 12.4085 4.32356 12.566 4.16603C12.7236 4.0085 12.9372 3.92 13.16 3.92C13.3828 3.92 13.5964 4.0085 13.754 4.16603C13.9115 4.32356 14 4.53722 14 4.76ZM14 8.68V9.24C13.9982 9.61074 13.8501 9.96576 13.5879 10.2279C13.3258 10.4901 12.9707 10.6382 12.6 10.64H12.04C11.8172 10.64 11.6036 10.5515 11.446 10.394C11.2885 10.2364 11.2 10.0228 11.2 9.8C11.2 9.57722 11.2885 9.36356 11.446 9.20603C11.6036 9.0485 11.8172 8.96 12.04 8.96H12.32V8.68C12.32 8.45722 12.4085 8.24356 12.566 8.08603C12.7236 7.9285 12.9372 7.84 13.16 7.84C13.3828 7.84 13.5964 7.9285 13.754 8.08603C13.9115 8.24356 14 8.45722 14 8.68ZM3.36 1.96V1.4C3.36184 1.02926 3.50993 0.674237 3.77208 0.412083C4.03424 0.14993 4.38926 0.00183991 4.76 0H5.32C5.54278 0 5.75644 0.0884998 5.91397 0.24603C6.0715 0.403561 6.16 0.617218 6.16 0.84C6.16 1.06278 6.0715 1.27644 5.91397 1.43397C5.75644 1.5915 5.54278 1.68 5.32 1.68H5.04V1.96C5.04 2.18278 4.9515 2.39644 4.79397 2.55397C4.63644 2.7115 4.42278 2.8 4.2 2.8C3.97722 2.8 3.76356 2.7115 3.60603 2.55397C3.4485 2.39644 3.36 2.18278 3.36 1.96Z" fill="white"/>
</svg>
