<svg width="20" height="23" viewBox="0 0 20 23" fill="none" xmlns="http://www.w3.org/2000/svg">
<path d="M15.2741 11.0767C17.6137 10.823 19.3333 7.13043 19.3333 2.31014C19.3333 1.94364 19.0513 1.66187 18.685 1.66187H15.6406V1.15458C15.6406 0.788071 15.3587 0.5063 14.9924 0.5063L5.01374 0.506104C4.64723 0.506104 4.36546 0.788066 4.36546 1.15438V1.66167L1.32113 1.66187C0.954623 1.66187 0.672852 1.94383 0.672852 2.31014C0.672852 7.13023 2.39233 10.823 4.73201 11.0767C5.35215 12.9653 6.73347 14.4311 8.45295 14.9667V15.0794C8.45295 17.0808 6.50791 18.7156 4.11207 18.7156C3.74556 18.7156 3.46379 18.9975 3.46379 19.3638V22.0981C3.46379 22.4646 3.74575 22.7464 4.11207 22.7464L10.0034 22.7466H15.8666C16.2331 22.7466 16.5148 22.4646 16.5148 22.0983V19.364C16.5148 18.9975 16.2329 18.7157 15.8666 18.7157C13.4705 18.7157 11.5257 17.0808 11.5257 15.0796V14.9669C13.2449 14.4311 14.6263 12.9652 15.2746 11.0767L15.2741 11.0767ZM18.0367 2.95847C17.9238 6.45386 16.7681 9.01894 15.5842 9.66727C15.6123 9.38531 15.6406 9.10356 15.6406 8.79349V8.68082V8.56815V2.93051L18.0367 2.93031L18.0367 2.95847ZM1.96941 2.95847H4.36551V8.59612V8.70879V8.82145C4.36551 9.10342 4.39363 9.41351 4.42194 9.69524C3.23803 9.01902 2.08232 6.45384 1.96941 2.95825L1.96941 2.95847ZM15.2461 19.9842V21.5062H4.76004V20.0122C7.4943 19.7303 9.66484 17.7007 9.72112 15.2484H10.0031H10.285C10.3413 17.7007 12.4837 19.7303 15.2461 19.9841L15.2461 19.9842ZM10.0031 13.9519C7.60695 13.9519 5.63383 11.6403 5.63383 8.79344V8.68077V8.5681V1.77474H14.344V8.59629V8.70896V8.82162C14.3723 11.6406 12.3992 13.9524 10.0031 13.9524L10.0031 13.9519Z" fill="white"/>
</svg>
