<svg width="14" height="18" viewBox="0 0 14 18" fill="none" xmlns="http://www.w3.org/2000/svg">
<path d="M14 6.67935C14.0005 5.56013 13.7061 4.45874 13.1436 3.47644C12.5812 2.49414 11.7688 1.66247 10.7813 1.05788C9.79375 0.453294 8.66268 0.0951984 7.49209 0.0165187C6.3215 -0.0621611 5.14896 0.1411 4.08227 0.607614C3.01557 1.07413 2.08897 1.78892 1.38764 2.68628C0.686318 3.58363 0.232783 4.63474 0.0687367 5.74298C-0.0953096 6.85121 0.0353976 7.98099 0.448841 9.02845C0.862284 10.0759 1.54519 11.0074 2.43478 11.7374V17.1292C2.43495 17.2776 2.47489 17.4235 2.55079 17.553C2.62669 17.6826 2.73605 17.7915 2.86848 17.8694C3.00099 17.9481 3.1526 17.9928 3.30858 17.9992C3.46457 18.0055 3.61962 17.9733 3.7587 17.9056L7 16.3599L10.2413 17.9056C10.3682 17.9684 10.5092 18.0007 10.6522 18C10.8217 18.0005 10.9879 17.9552 11.1315 17.8694C11.264 17.7915 11.3733 17.6826 11.4492 17.553C11.5251 17.4235 11.565 17.2776 11.5652 17.1292V11.7374C12.329 11.1112 12.942 10.3352 13.3623 9.46217C13.7825 8.5892 14 7.63994 14 6.67935ZM1.82609 6.67935C1.82609 5.70337 2.12953 4.74931 2.69805 3.93781C3.26657 3.12632 4.07462 2.49383 5.02003 2.12034C5.96544 1.74685 7.00574 1.64913 8.00938 1.83953C9.01302 2.02993 9.93493 2.49991 10.6585 3.19003C11.3821 3.88016 11.8749 4.75942 12.0745 5.71665C12.2741 6.67388 12.1717 7.66607 11.7801 8.56775C11.3885 9.46944 10.7253 10.2401 9.87447 10.7823C9.02363 11.3246 8.0233 11.614 7 11.614C5.62841 11.6121 4.31358 11.0916 3.34371 10.1665C2.37385 9.24154 1.8281 7.98751 1.82609 6.67935ZM9.73913 15.7213L7.41087 14.6111C7.28326 14.5504 7.1426 14.5188 7 14.5188C6.8574 14.5188 6.71675 14.5504 6.58913 14.6111L4.26087 15.7213V12.8259C5.12753 13.1756 6.05898 13.3557 7 13.3557C7.94102 13.3557 8.87247 13.1756 9.73913 12.8259V15.7213ZM7 10.4529C7.78253 10.4529 8.54748 10.2316 9.19813 9.81694C9.84877 9.4023 10.3559 8.81295 10.6553 8.12342C10.9548 7.4339 11.0332 6.67516 10.8805 5.94317C10.7278 5.21117 10.351 4.53879 9.79768 4.01105C9.24435 3.48331 8.53937 3.12391 7.77188 2.97831C7.00439 2.83271 6.20887 2.90744 5.48591 3.19305C4.76295 3.47866 4.14502 3.96232 3.71027 4.58288C3.27552 5.20344 3.04348 5.93301 3.04348 6.67935C3.04348 7.68016 3.46033 8.63997 4.20232 9.34765C4.94431 10.0553 5.95067 10.4529 7 10.4529ZM7 4.64744C7.42136 4.64744 7.83326 4.76661 8.18361 4.98988C8.53396 5.21315 8.80702 5.53049 8.96827 5.90177C9.12951 6.27305 9.1717 6.6816 9.0895 7.07576C9.0073 7.46991 8.80439 7.83196 8.50645 8.11613C8.2085 8.40029 7.82889 8.59381 7.41563 8.67222C7.00236 8.75062 6.57401 8.71038 6.18472 8.55659C5.79543 8.4028 5.4627 8.14236 5.22861 7.80822C4.99451 7.47407 4.86957 7.08122 4.86957 6.67935C4.87157 6.14104 5.09667 5.62533 5.49577 5.24469C5.89487 4.86404 6.43559 4.64935 7 4.64744Z" fill="current" stroke="current" />
</svg>
