<svg width="16" height="16" viewBox="0 0 16 16" fill="none" xmlns="http://www.w3.org/2000/svg">
<path d="M4.05821 0.615479C3.18498 0.615479 2.27175 1.17979 1.46191 2.23086C0.652059 3.28194 0.0255973 4.86594 0.0582127 6.96194C0.0582127 7.96256 0.377597 9.07271 0.98129 10.0001C1.06991 10.1367 1.22314 10.2186 1.32714 10.3466C0.903751 10.8579 0.17329 11.8272 0.17329 11.8272C0.107753 11.883 0.0546652 11.952 0.0174572 12.0296C-0.0197507 12.1073 -0.0402503 12.1919 -0.0427163 12.2779C-0.0451823 12.364 -0.0295598 12.4496 0.00314126 12.5293C0.0358423 12.6089 0.084894 12.6808 0.147125 12.7403C0.209357 12.7999 0.283383 12.8456 0.364417 12.8747C0.445452 12.9038 0.531692 12.9156 0.617562 12.9093C0.703432 12.903 0.787021 12.8787 0.862925 12.8381C0.938829 12.7974 1.00536 12.7413 1.05821 12.6733C1.05821 12.6733 1.79852 11.6826 2.19237 11.2118C2.64652 11.5004 3.1659 11.6924 3.75052 11.6924C4.8016 11.6924 5.78867 11.1896 6.63483 10.4998C6.75483 10.4026 6.82744 10.2592 6.94252 10.1539C7.21391 10.3441 7.53329 10.4616 7.88468 10.4616C8.47483 10.4616 8.97575 10.1804 9.40467 9.84625C9.83298 9.51209 10.2004 9.10963 10.5388 8.71148C10.7659 8.4444 10.9321 8.22286 11.1161 8.00009C11.0933 8.28994 11.0748 8.57548 11.0773 8.84625C11.0785 8.98779 11.0847 9.11517 11.1351 9.28871C11.1598 9.37486 11.1819 9.49425 11.289 9.61548C11.3961 9.73671 11.6139 9.84625 11.8078 9.84625C12.3105 9.84625 12.6847 9.5644 12.9616 9.28871C13.2385 9.0124 13.4607 8.69486 13.7124 8.40379C14.2133 7.82225 14.6958 7.38471 15.385 7.38471C15.5482 7.38471 15.7047 7.31987 15.8201 7.20447C15.9355 7.08906 16.0004 6.93254 16.0004 6.76932C16.0004 6.60611 15.9355 6.44959 15.8201 6.33418C15.7047 6.21878 15.5482 6.15394 15.385 6.15394C14.1665 6.15394 13.3481 6.94779 12.7887 7.5964C12.6151 7.79763 12.4847 7.93486 12.3468 8.09609C12.3481 8.07394 12.345 8.06102 12.3468 8.03825C12.3702 7.72563 12.4084 7.42102 12.385 7.11517C12.3788 6.94274 12.3395 6.7731 12.2693 6.61548C12.1831 6.42717 11.8951 6.15394 11.577 6.15394C11.2441 6.15394 11.0564 6.3004 10.9044 6.42348C10.7524 6.54656 10.6194 6.68932 10.481 6.84625C10.2041 7.16009 9.91175 7.53302 9.59667 7.90409C9.28098 8.27517 8.94683 8.64194 8.63483 8.88502C8.32344 9.12748 8.06437 9.23086 7.88468 9.23086C7.84406 9.23086 7.82314 9.16133 7.78867 9.15394C8.11298 8.7644 8.51175 8.42963 8.7696 8.01917C9.33144 7.12317 9.72221 6.2364 9.84652 5.46163C9.90867 5.07394 9.93083 4.69732 9.75052 4.32686C9.5696 3.95702 9.09821 3.6924 8.6736 3.6924C7.84591 3.6924 7.14991 4.22779 6.6736 4.94225C6.19667 5.65732 5.90437 6.59517 5.90437 7.63456C5.90437 8.17425 6.0736 8.62779 6.25021 9.07702C6.10375 9.21856 5.99791 9.41548 5.84652 9.53856C5.13514 10.1182 4.39114 10.4616 3.75052 10.4616C3.47175 10.4616 3.22314 10.3398 2.98129 10.2118C3.26867 9.82902 3.29083 9.87948 3.59667 9.42286C4.85698 7.5404 6.15421 5.13425 6.15421 2.82779C6.15421 2.55394 6.13575 2.05856 5.84652 1.55825C5.55729 1.05732 4.91237 0.615479 4.05821 0.615479ZM4.05821 1.84625C4.55791 1.84625 4.65883 1.98163 4.7696 2.17302C4.88037 2.36502 4.92344 2.67025 4.92344 2.82717C4.92344 4.64379 3.75914 6.95579 2.55791 8.75025C2.31237 9.11702 2.31237 9.06656 2.07729 9.38471C2.06067 9.36009 2.03606 9.35209 2.01944 9.32686C1.5616 8.62348 1.28898 7.68379 1.28898 6.96133C1.28907 6.95517 1.28907 6.94902 1.28898 6.94286C1.26006 5.09979 1.80591 3.82594 2.44283 3.00009C3.07914 2.17425 3.88467 1.84625 4.05821 1.84625ZM8.63483 4.94225C8.64344 4.98779 8.66683 5.06902 8.63483 5.26902C8.55544 5.76379 8.23052 6.56932 7.73083 7.36563C7.5936 7.58409 7.37206 7.74717 7.21206 7.96194C7.19729 7.83394 7.13514 7.77486 7.13514 7.63456C7.13514 6.8284 7.36898 6.1004 7.69267 5.61548C8.0016 5.15148 8.35914 4.96009 8.63483 4.94225ZM0.000366583 14.1539V15.3847H16.0004V14.1539H0.000366583Z" fill="current" stroke="current"/>
</svg>
